<?xml version="1.0" encoding="UTF-8" ?>
<!DOCTYPE svg PUBLIC "-//W3C//DTD SVG 1.1//EN" "http://www.w3.org/Graphics/SVG/1.1/DTD/svg11.dtd">
<svg width="1320pt" height="301pt" viewBox="0 0 1320 301" version="1.1" xmlns="http://www.w3.org/2000/svg">
<path fill="#e6e4f4" opacity="1.00" d=" M 312.04 59.29 C 321.93 58.13 331.95 58.85 341.90 58.47 C 346.49 58.48 352.15 57.31 355.00 61.93 C 362.14 73.21 368.79 84.82 375.74 96.23 C 377.40 98.31 377.30 102.11 373.98 102.22 C 357.98 102.46 341.97 102.60 325.97 102.71 C 310.09 104.03 294.08 103.25 278.15 103.77 C 270.14 104.76 262.02 104.26 253.96 104.44 C 245.30 104.43 237.44 99.70 232.02 93.18 C 227.63 99.99 222.48 107.52 223.66 116.05 C 224.58 122.78 229.15 129.11 235.48 131.72 C 242.35 134.52 249.81 133.23 257.00 133.40 C 262.36 133.73 267.62 132.54 272.97 132.72 C 288.97 132.58 304.97 132.49 320.97 132.26 C 324.61 131.60 328.30 131.70 331.99 131.67 C 344.95 131.52 357.92 131.57 370.88 131.22 C 375.76 130.04 380.65 131.55 385.29 133.01 C 394.48 136.72 401.11 146.07 401.43 156.01 C 402.16 162.01 399.74 167.75 397.07 172.97 C 383.94 195.97 371.30 219.23 358.31 242.30 C 356.92 245.12 354.56 247.91 351.06 247.51 C 342.92 247.55 334.78 247.65 326.65 247.70 C 308.16 249.28 289.50 247.71 271.03 249.29 C 263.99 249.31 256.96 249.46 249.92 249.46 C 247.44 249.56 245.16 248.06 243.99 245.94 C 236.70 233.92 229.52 221.82 222.27 209.78 C 221.23 208.51 221.07 205.75 223.26 205.76 C 234.50 205.32 245.76 205.46 257.01 205.32 C 269.30 204.19 281.69 204.70 294.03 204.45 C 309.84 203.09 325.74 203.95 341.59 203.37 C 347.36 203.14 353.36 203.87 358.33 207.05 C 361.74 208.83 364.11 211.93 366.89 214.49 C 371.28 207.78 375.91 200.33 375.29 191.97 C 374.03 182.33 364.99 173.79 355.03 174.38 C 342.35 174.47 329.67 174.61 316.99 174.72 C 299.40 176.27 281.63 174.68 264.05 176.28 C 250.31 176.37 236.57 176.48 222.84 176.66 C 212.28 176.45 201.86 169.54 198.59 159.35 C 196.79 154.85 197.00 149.81 197.67 145.10 C 199.70 136.90 204.84 130.00 208.65 122.58 C 219.75 102.99 230.46 83.17 241.73 63.68 C 243.11 60.16 247.13 60.47 250.20 59.86 C 270.81 59.67 291.43 59.47 312.04 59.29 Z" />
<path fill="#e6e4f4" opacity="1.00" d=" M 458.81 105.91 C 468.67 104.04 479.58 105.09 487.89 111.13 C 492.23 114.35 495.51 119.21 496.19 124.64 C 491.28 125.59 486.53 127.27 481.58 127.99 C 480.91 122.16 475.70 117.97 470.03 117.60 C 465.84 117.39 460.87 117.47 457.99 121.04 C 454.59 124.65 456.21 130.69 460.35 133.04 C 460.58 136.34 460.97 139.63 461.70 142.86 C 461.37 139.59 460.75 136.35 460.52 133.06 C 470.20 136.77 480.89 138.35 489.45 144.55 C 499.77 151.94 499.01 169.65 488.56 176.57 C 481.47 181.85 472.11 182.52 463.59 181.73 C 463.65 178.84 463.64 175.96 463.51 173.08 C 463.34 175.96 463.35 178.85 463.43 181.73 C 456.35 180.86 448.95 178.42 444.14 172.89 C 440.86 169.50 438.96 165.01 438.09 160.42 C 443.30 159.30 448.50 158.14 453.69 156.97 C 454.63 160.90 456.29 164.90 459.86 167.16 C 465.68 170.48 473.93 170.89 479.15 166.18 C 481.87 162.72 481.77 156.71 477.89 154.10 C 473.68 150.54 467.99 149.88 463.06 147.79 C 462.53 146.69 462.65 145.45 462.44 144.29 C 462.44 145.13 462.42 146.81 462.42 147.66 C 455.08 145.32 446.58 142.62 442.66 135.38 C 439.97 130.13 440.13 123.73 442.24 118.31 C 445.37 111.84 451.80 107.27 458.81 105.91 Z" />
<path fill="#e6e4f4" opacity="1.00" d=" M 555.42 105.70 C 564.18 104.39 573.56 105.09 581.41 109.50 C 591.77 114.04 598.45 124.52 600.38 135.41 C 601.83 145.75 600.93 157.05 594.86 165.87 C 582.90 184.07 554.82 187.17 538.14 173.85 C 524.20 162.90 521.19 141.92 528.20 126.26 C 532.79 115.16 543.65 107.42 555.42 105.70 M 557.41 119.63 C 550.22 121.12 543.94 126.48 541.45 133.42 C 538.43 141.91 539.27 151.99 544.56 159.43 C 552.52 170.16 570.25 171.06 579.45 161.45 C 585.09 155.86 586.59 147.30 585.69 139.67 C 585.15 134.00 582.79 128.34 578.33 124.65 C 572.89 119.37 564.60 118.33 557.41 119.63 Z" />
<path fill="#e6e4f4" opacity="1.00" d=" M 640.64 114.67 C 650.95 105.48 666.08 103.06 679.18 106.65 C 689.61 109.58 698.89 117.35 702.29 127.80 C 697.60 129.54 692.79 130.96 688.23 133.02 C 683.64 119.17 664.57 114.94 653.39 123.33 C 640.39 133.13 640.81 156.41 655.04 164.93 C 665.04 170.61 680.02 168.51 686.15 158.14 C 687.00 156.89 687.63 155.50 688.28 154.13 C 692.81 156.03 697.51 157.50 702.11 159.26 C 700.33 166.37 694.96 171.98 689.12 176.09 C 678.05 182.78 663.88 183.75 651.80 179.35 C 642.22 175.62 634.34 167.58 631.18 157.76 C 626.20 143.25 628.95 125.27 640.64 114.67 Z" />
<path fill="#e6e4f4" opacity="1.00" d=" M 733.69 105.93 C 738.77 105.97 743.85 105.81 748.93 106.07 C 749.16 131.02 749.16 155.98 748.93 180.93 C 743.85 181.15 738.77 181.15 733.69 180.90 C 733.66 155.91 733.66 130.92 733.69 105.93 Z" />
<path fill="#e6e4f4" opacity="1.00" d=" M 806.22 106.07 C 812.65 105.88 819.11 105.74 825.54 106.19 C 834.13 131.31 843.95 156.01 852.73 181.07 C 847.54 181.02 842.35 181.22 837.17 180.90 C 835.42 175.81 833.47 170.79 831.92 165.64 C 821.22 165.49 810.51 165.67 799.80 165.55 C 798.21 170.71 796.08 175.67 794.57 180.85 C 789.33 181.22 784.06 181.15 778.82 180.89 C 787.94 155.95 797.31 131.09 806.22 106.07 M 815.43 120.85 C 811.91 131.47 808.01 141.97 804.42 152.57 C 811.99 152.82 819.56 152.61 827.13 152.69 C 824.96 144.89 821.64 137.49 819.27 129.76 C 818.16 126.74 817.56 123.37 815.43 120.85 Z" />
<path fill="#e6e4f4" opacity="1.00" d=" M 882.69 105.93 C 887.74 105.93 892.79 105.91 897.84 105.96 C 897.87 126.54 897.75 147.12 897.90 167.70 C 905.75 167.58 913.61 167.81 921.47 167.57 C 921.70 172.02 921.52 176.48 921.64 180.93 C 908.66 181.14 895.67 181.19 882.69 180.90 C 882.66 155.91 882.66 130.92 882.69 105.93 Z" />
<path fill="#e6e4f4" opacity="1.00" d=" M 951.69 105.93 C 956.77 105.97 961.85 105.81 966.93 106.07 C 967.16 131.02 967.16 155.98 966.93 180.93 C 961.85 181.15 956.76 181.15 951.69 180.90 C 951.65 155.91 951.66 130.92 951.69 105.93 Z" />
<path fill="#e6e4f4" opacity="1.00" d=" M 997.16 105.96 C 1014.21 106.00 1031.26 105.73 1048.30 106.10 C 1048.33 110.50 1048.36 114.90 1048.29 119.30 C 1042.30 119.37 1036.32 119.30 1030.34 119.34 C 1030.30 139.92 1030.36 160.49 1030.31 181.07 C 1025.25 181.06 1020.20 181.09 1015.16 181.04 C 1015.13 160.46 1015.25 139.88 1015.10 119.30 C 1009.11 119.35 1003.12 119.34 997.14 119.31 C 997.18 114.86 997.16 110.41 997.16 105.96 Z" />
<path fill="#e6e4f4" opacity="1.00" d=" M 1078.36 106.07 C 1092.85 105.77 1107.34 105.98 1121.84 105.96 C 1121.83 110.41 1121.81 114.86 1121.86 119.31 C 1112.54 119.33 1103.22 119.35 1093.91 119.30 C 1093.76 125.18 1093.85 131.05 1093.84 136.93 C 1102.10 137.00 1110.38 136.77 1118.64 137.07 C 1118.55 141.35 1118.55 145.64 1118.64 149.93 C 1110.38 150.23 1102.11 150.00 1093.84 150.07 C 1093.85 155.95 1093.76 161.82 1093.91 167.70 C 1103.22 167.65 1112.54 167.66 1121.86 167.69 C 1121.81 172.14 1121.83 176.59 1121.84 181.04 C 1107.34 181.02 1092.85 181.23 1078.36 180.93 C 1078.45 155.98 1078.45 131.02 1078.36 106.07 Z" />
</svg>
