<?xml version="1.0" encoding="UTF-8" ?>
<!DOCTYPE svg PUBLIC "-//W3C//DTD SVG 1.1//EN" "http://www.w3.org/Graphics/SVG/1.1/DTD/svg11.dtd">
<svg width="1320pt" height="301pt" viewBox="0 0 1320 301" version="1.1" xmlns="http://www.w3.org/2000/svg">
<path fill="#fefeff" opacity="1.00" d=" M 246.50 55.29 C 281.68 55.10 316.86 55.13 352.04 55.00 C 359.64 68.07 367.20 81.16 374.83 94.21 C 374.69 94.80 374.42 95.97 374.28 96.55 C 373.20 96.72 372.12 96.84 371.04 96.91 C 334.05 96.96 297.05 97.11 260.06 97.19 C 248.31 97.39 236.48 96.51 224.78 97.65 C 224.25 102.22 224.09 106.84 224.59 111.41 C 225.29 112.31 225.63 113.33 225.62 114.49 L 226.62 114.57 C 226.56 115.04 226.44 115.99 226.38 116.46 L 227.38 116.47 C 227.61 118.13 228.94 119.34 230.51 119.78 C 230.52 120.22 230.54 121.10 230.55 121.54 C 231.05 121.48 232.04 121.37 232.54 121.31 L 232.41 122.61 L 233.77 122.32 L 233.35 123.39 C 235.90 123.65 238.45 124.03 241.02 124.07 C 287.03 124.13 333.05 123.96 379.07 123.75 C 381.11 123.96 383.11 124.45 385.14 124.77 C 387.46 125.75 389.78 126.76 391.88 128.16 C 393.70 129.63 395.35 131.30 396.83 133.12 C 398.18 135.23 399.33 137.47 400.24 139.81 C 400.45 141.19 400.77 142.55 401.26 143.87 C 401.38 147.65 402.28 151.81 399.97 155.16 C 384.06 182.63 368.32 210.19 352.49 237.71 C 317.32 237.91 282.14 237.87 246.96 238.00 C 239.62 225.37 232.30 212.74 224.96 200.11 C 224.20 198.90 224.07 197.45 223.76 196.09 C 268.50 195.99 313.24 196.17 357.97 195.52 L 358.24 195.58 C 363.56 196.56 369.01 195.85 374.34 195.27 C 375.66 190.88 376.26 185.93 374.55 181.58 C 374.23 181.49 373.60 181.31 373.29 181.22 C 373.40 180.81 373.62 179.99 373.74 179.58 L 372.43 179.42 C 372.51 178.94 372.67 177.97 372.76 177.49 L 371.48 177.39 C 371.51 176.92 371.55 175.97 371.57 175.50 L 370.50 175.66 L 370.47 174.50 L 369.25 174.52 L 369.68 173.51 L 368.38 173.60 L 368.50 172.32 L 367.30 172.64 L 367.61 171.58 C 366.53 171.19 365.45 170.81 364.38 170.43 L 364.56 169.56 C 357.40 168.57 350.17 169.03 342.97 168.93 C 310.66 168.85 278.35 169.13 246.04 169.14 C 235.96 169.01 225.83 169.79 215.83 168.26 C 214.57 167.77 213.32 167.29 212.06 166.82 C 209.50 165.99 207.25 164.47 205.22 162.74 C 204.97 162.44 204.46 161.86 204.20 161.57 L 203.46 161.52 L 203.45 160.76 C 202.24 159.59 201.23 158.24 200.27 156.85 C 199.43 155.25 198.77 153.56 198.21 151.84 C 196.96 147.32 196.32 142.08 198.74 137.83 C 200.60 133.50 203.75 129.94 206.00 125.83 C 219.49 102.31 233.02 78.82 246.50 55.29 Z" />
<path fill="#fefeff" opacity="1.00" d=" M 865.40 78.04 C 871.50 77.96 877.60 78.00 883.71 78.02 C 883.67 121.36 883.69 164.70 883.70 208.05 C 877.58 208.01 871.46 208.21 865.35 207.92 C 865.52 164.63 865.43 121.33 865.40 78.04 Z" />
<path fill="#fefeff" opacity="1.00" d=" M 468.86 83.34 C 479.17 81.02 490.35 81.51 500.18 85.59 C 507.49 88.58 513.31 94.65 516.13 102.01 C 510.84 104.76 505.47 107.36 500.16 110.05 C 497.09 105.47 492.98 101.13 487.45 99.75 C 481.54 98.34 474.70 98.89 469.80 102.76 C 464.29 107.00 462.76 115.59 466.60 121.41 C 469.59 126.06 474.27 129.28 478.99 131.99 C 488.31 136.96 498.36 140.72 506.83 147.18 C 513.28 151.72 518.16 158.66 519.35 166.55 C 520.59 175.08 519.62 184.16 515.62 191.88 C 510.46 201.84 500.13 208.44 489.19 210.16 C 478.16 211.90 466.22 211.28 456.26 205.81 C 447.76 201.29 442.07 192.68 440.02 183.40 C 445.37 180.97 450.66 178.39 456.03 176.00 C 457.85 182.96 462.86 189.23 469.87 191.44 C 476.49 193.53 484.18 193.80 490.43 190.43 C 499.01 185.84 501.98 172.93 495.48 165.44 C 488.77 157.40 478.33 154.43 469.56 149.33 C 461.37 144.64 452.53 139.76 447.56 131.41 C 443.10 123.76 442.72 114.29 444.86 105.85 C 447.75 94.56 457.68 85.95 468.86 83.34 Z" />
<path fill="#fefeff" opacity="1.00" d=" M 725.44 82.68 C 732.00 79.94 740.28 84.65 740.79 91.85 C 742.01 98.68 735.97 105.69 728.96 105.02 C 721.87 104.92 716.27 97.23 718.34 90.43 C 719.32 86.93 722.05 83.99 725.44 82.68 Z" />
<path fill="#fefeff" opacity="1.00" d=" M 915.50 82.66 C 922.05 79.97 930.27 84.67 930.79 91.83 C 932.03 98.70 925.93 105.73 918.90 105.01 C 911.62 104.88 906.03 96.77 908.51 89.91 C 909.61 86.61 912.26 83.89 915.50 82.66 Z" />
<path fill="#fefeff" opacity="1.00" d=" M 958.81 98.00 C 964.91 98.00 971.02 98.00 977.12 98.00 C 977.12 108.00 977.13 118.00 977.12 128.00 C 981.76 128.00 986.41 128.00 991.06 128.00 C 991.06 133.35 991.06 138.71 991.06 144.06 C 986.41 144.06 981.76 144.06 977.12 144.06 C 977.12 165.39 977.12 186.73 977.12 208.06 C 971.02 208.06 964.91 208.06 958.81 208.06 C 958.81 186.73 958.81 165.40 958.82 144.07 C 954.19 144.06 949.56 144.06 944.94 144.06 C 944.93 138.71 944.94 133.35 944.94 128.00 C 949.56 128.00 954.19 128.00 958.82 127.99 C 958.80 118.00 958.81 108.00 958.81 98.00 Z" />
<path fill="#fefeff" opacity="1.00" d=" M 573.16 125.16 C 583.40 124.22 594.02 126.67 602.50 132.58 C 611.21 138.59 617.92 147.69 620.30 158.08 C 622.94 169.36 620.98 181.80 614.45 191.44 C 606.94 202.44 594.39 209.95 581.05 210.88 C 568.45 211.98 555.44 207.39 546.52 198.38 C 538.88 190.95 534.10 180.61 533.72 169.92 C 533.10 158.86 537.05 147.65 544.52 139.46 C 551.78 131.27 562.27 126.12 573.16 125.16 M 571.54 141.80 C 566.90 143.00 562.79 145.82 559.69 149.43 C 550.40 159.92 550.75 177.55 560.59 187.56 C 569.31 197.58 586.57 197.30 594.98 187.03 C 605.05 176.26 604.42 157.35 593.48 147.38 C 587.82 141.78 579.17 139.78 571.54 141.80 Z" />
<path fill="#fefeff" opacity="1.00" d=" M 650.50 134.39 C 658.71 127.65 669.54 124.84 680.02 124.98 C 687.30 124.92 694.65 126.43 701.07 129.94 C 701.05 136.62 701.07 143.31 701.06 149.99 C 693.50 142.24 681.65 139.15 671.27 142.17 C 664.91 144.03 659.70 149.01 657.16 155.07 C 654.50 161.46 654.35 168.68 655.70 175.39 C 657.09 182.19 661.50 188.46 667.86 191.44 C 678.92 196.49 693.59 194.12 701.03 184.01 C 701.10 191.02 701.03 198.03 701.07 205.04 C 690.55 211.22 677.60 212.41 665.85 209.61 C 654.28 206.85 644.32 198.43 639.43 187.61 C 635.41 178.67 634.74 168.48 636.27 158.88 C 637.80 149.33 642.91 140.41 650.50 134.39 Z" />
<path fill="#fefeff" opacity="1.00" d=" M 786.53 125.77 C 795.83 123.98 806.33 124.97 814.02 130.93 C 817.19 133.30 819.37 136.67 821.25 140.09 C 821.24 136.06 821.24 132.03 821.25 128.00 C 827.36 128.02 833.47 127.96 839.59 128.03 C 839.56 154.67 839.51 181.32 839.61 207.96 C 833.49 208.18 827.37 208.01 821.25 208.06 C 821.24 204.67 821.25 201.29 821.23 197.91 C 816.75 203.79 810.56 208.60 803.20 210.14 C 792.71 212.30 780.85 210.66 772.48 203.59 C 764.60 197.07 760.45 187.07 759.23 177.11 C 757.90 166.13 758.55 154.49 763.50 144.42 C 767.97 135.27 776.37 127.75 786.53 125.77 M 794.49 141.64 C 788.23 142.94 783.09 147.69 780.63 153.50 C 777.63 160.52 777.44 168.45 778.54 175.92 C 779.60 182.67 783.10 189.53 789.43 192.70 C 796.89 196.34 806.74 195.76 813.03 190.04 C 818.69 185.04 821.32 177.43 821.65 170.04 C 822.05 161.97 820.80 153.06 815.03 146.95 C 809.90 141.40 801.61 140.09 794.49 141.64 Z" />
<path fill="#fefeff" opacity="1.00" d=" M 1029.47 126.72 C 1037.79 124.37 1046.71 124.52 1055.13 126.33 C 1065.10 128.50 1074.11 135.04 1078.73 144.21 C 1082.92 152.12 1083.63 161.26 1083.58 170.06 C 1062.34 170.07 1041.11 170.05 1019.87 170.06 C 1020.36 177.04 1022.52 184.39 1028.01 189.08 C 1034.33 194.65 1043.67 194.92 1051.41 192.64 C 1058.61 190.55 1063.55 184.34 1066.89 177.94 C 1072.03 180.92 1077.22 183.82 1082.37 186.78 C 1077.35 195.94 1069.79 204.11 1059.88 207.91 C 1049.50 211.86 1037.74 212.02 1027.15 208.80 C 1015.27 205.14 1005.86 195.05 1002.54 183.14 C 1000.00 174.02 999.81 164.19 1002.13 155.00 C 1005.53 141.71 1016.20 130.44 1029.47 126.72 M 1033.48 141.67 C 1026.58 144.22 1022.63 151.18 1021.04 158.01 C 1035.42 157.98 1049.80 158.02 1064.18 157.99 C 1063.36 151.98 1060.56 145.81 1055.01 142.82 C 1048.47 139.36 1040.37 139.21 1033.48 141.67 Z" />
<path fill="#fefeff" opacity="1.00" d=" M 720.41 128.03 C 726.51 127.97 732.60 128.00 738.70 128.01 C 738.68 154.68 738.67 181.35 738.71 208.02 C 732.59 208.04 726.47 208.19 720.36 207.93 C 720.52 181.30 720.42 154.66 720.41 128.03 Z" />
<path fill="#fefeff" opacity="1.00" d=" M 910.38 128.06 C 916.49 127.94 922.59 128.01 928.71 128.02 C 928.68 154.68 928.67 181.34 928.71 208.00 C 922.60 208.08 916.49 208.15 910.39 207.95 C 910.47 181.32 910.48 154.69 910.38 128.06 Z" />
<path fill="#aeaeaf" opacity="0.24" d=" M 373.24 195.32 C 375.04 190.90 374.03 186.16 374.55 181.58 C 376.26 185.93 375.66 190.88 374.34 195.27 C 369.01 195.85 363.56 196.56 358.24 195.58 C 363.16 194.63 368.25 195.24 373.24 195.32 Z" />
</svg>
