<svg xmlns="http://www.w3.org/2000/svg" width="1320pt" height="301pt" viewBox="0 0 1320 301" version="1.1">
<path fill="#000000" opacity="1.00" d=" M 246.51 55.28 C 281.69 55.11 316.87 55.12 352.04 55.00 C 359.84 68.51 367.76 81.95 375.49 95.50 C 346.49 95.44 317.48 95.87 288.48 95.73 C 288.54 95.94 288.66 96.36 288.72 96.57 C 269.50 96.45 250.27 96.60 231.04 96.73 C 228.55 96.53 226.19 97.34 223.85 98.07 C 224.47 98.25 225.69 98.60 226.30 98.78 L 223.99 99.94 C 223.49 103.64 223.60 107.43 223.97 111.13 L 226.50 112.18 C 225.80 112.39 224.40 112.79 223.70 112.99 L 225.81 113.24 L 225.36 114.54 L 226.68 114.59 C 226.59 115.05 226.41 115.98 226.32 116.44 L 227.62 116.45 C 227.63 116.96 227.65 117.97 227.66 118.48 C 228.11 118.48 229.02 118.48 229.47 118.47 L 229.24 119.74 L 230.50 119.45 C 230.51 119.96 230.53 120.98 230.55 121.49 C 231.06 121.47 232.08 121.42 232.59 121.40 L 232.49 122.67 C 233.00 122.64 234.02 122.58 234.53 122.55 C 234.54 122.96 234.58 123.79 234.59 124.21 C 236.25 124.35 237.90 124.52 239.57 124.66 L 239.45 125.35 C 262.87 125.90 286.32 125.17 309.75 125.42 L 309.25 124.65 L 311.95 124.63 L 311.14 125.43 C 312.95 125.38 314.76 125.36 316.57 125.35 L 316.31 124.52 C 322.20 125.15 328.11 124.46 334.01 124.60 C 349.57 124.75 365.14 124.24 380.70 124.63 L 380.27 125.48 C 381.76 125.53 383.24 125.58 384.73 125.63 L 384.18 126.48 C 385.01 126.53 386.67 126.64 387.50 126.69 L 387.42 127.98 C 387.83 127.87 388.65 127.64 389.06 127.53 C 389.39 128.87 390.23 129.61 391.58 129.76 L 391.37 130.76 L 392.65 130.35 L 392.58 131.74 C 392.94 131.74 393.67 131.73 394.03 131.73 C 394.41 132.28 395.17 133.39 395.55 133.94 C 395.59 134.19 395.66 134.71 395.69 134.97 C 396.74 135.88 397.72 136.88 398.65 137.92 C 398.64 138.17 398.60 138.66 398.59 138.90 C 399.29 139.98 399.72 141.17 399.86 142.47 L 400.52 142.47 C 400.39 143.57 400.14 145.75 400.01 146.84 L 401.11 143.14 C 400.98 147.08 402.51 151.47 399.99 154.96 C 384.19 182.56 368.32 210.12 352.49 237.71 C 317.31 237.90 282.13 237.88 246.96 238.00 C 239.33 224.51 231.07 211.34 223.85 197.64 C 248.15 197.44 272.46 197.32 296.78 197.37 L 296.32 196.59 C 297.17 196.59 298.86 196.58 299.71 196.57 L 299.28 197.36 C 300.37 197.34 302.57 197.31 303.66 197.30 L 303.38 196.61 C 315.80 196.60 328.22 196.59 340.64 196.42 L 340.43 195.63 C 341.22 195.64 342.80 195.66 343.59 195.67 L 343.76 197.18 L 344.73 195.82 C 354.40 195.60 364.07 195.69 373.74 195.30 L 373.43 193.61 L 374.51 193.69 C 374.53 189.41 374.96 185.09 374.21 180.86 L 372.01 179.82 C 372.54 179.67 373.60 179.36 374.12 179.21 C 372.31 178.63 371.35 177.37 371.24 175.44 L 370.66 175.67 C 370.30 175.32 369.59 174.63 369.23 174.28 L 369.47 173.13 L 367.48 173.73 L 368.89 172.18 L 367.18 172.54 L 367.54 171.12 L 365.72 171.72 C 365.67 171.32 365.57 170.53 365.52 170.14 L 364.26 170.67 L 364.44 169.18 C 363.96 169.35 363.00 169.69 362.53 169.86 L 362.58 168.55 C 360.52 168.41 358.46 168.30 356.41 168.26 L 356.82 167.39 C 351.94 167.62 347.06 167.29 342.19 167.66 L 344.79 168.95 C 341.84 168.36 338.54 169.12 336.17 166.71 L 336.75 168.22 C 303.91 168.20 271.07 168.52 238.24 168.46 L 238.52 169.26 C 231.94 169.03 225.36 169.07 218.84 170.01 L 226.64 168.76 C 222.53 168.65 218.55 168.35 214.48 168.15 C 214.55 167.80 214.69 167.10 214.76 166.75 C 212.90 166.12 209.67 167.08 209.28 164.40 C 208.84 164.43 207.95 164.48 207.51 164.51 C 207.48 164.00 207.42 162.98 207.39 162.47 C 206.90 162.49 205.94 162.52 205.46 162.54 L 205.60 161.19 L 204.17 161.81 L 204.84 160.43 L 203.49 160.56 C 203.48 160.08 203.46 159.11 203.45 158.63 L 202.29 158.58 L 202.50 157.29 L 201.03 157.47 L 201.70 155.45 L 199.88 156.96 C 200.09 156.39 200.50 155.25 200.71 154.67 L 199.34 154.46 C 199.39 154.07 199.51 153.28 199.56 152.89 C 198.89 151.63 198.26 150.36 197.67 149.06 C 197.56 145.79 196.41 142.12 198.36 139.18 C 214.36 111.19 230.48 83.26 246.51 55.28 Z"/>
<path fill="#000000" opacity="1.00" d=" M 865.43 78.00 C 871.52 78.00 877.60 78.00 883.69 78.00 C 883.69 121.36 883.69 164.71 883.69 208.06 C 877.60 208.06 871.52 208.06 865.44 208.06 C 865.43 164.71 865.44 121.36 865.43 78.00 Z"/>
<path fill="#000000" opacity="1.00" d=" M 454.53 90.64 C 461.48 84.55 470.89 82.01 479.98 81.99 C 489.73 81.86 500.07 83.85 507.76 90.21 C 511.61 93.29 514.28 97.55 516.11 102.07 C 510.80 104.73 505.48 107.38 500.16 110.05 C 497.09 105.49 493.02 101.16 487.52 99.77 C 481.59 98.34 474.73 98.88 469.81 102.76 C 464.29 107.00 462.76 115.61 466.62 121.44 C 469.86 126.43 475.00 129.80 480.13 132.61 C 491.18 138.29 503.32 142.78 512.15 151.88 C 518.81 158.75 520.73 168.88 519.58 178.12 C 518.83 187.38 514.44 196.40 507.12 202.23 C 499.35 208.70 488.98 211.06 479.06 211.01 C 469.34 211.09 459.17 208.85 451.50 202.59 C 445.47 197.86 441.80 190.77 440.00 183.43 C 445.33 180.94 450.66 178.45 456.00 175.98 C 457.82 182.67 462.44 188.80 469.12 191.17 C 475.69 193.50 483.35 193.84 489.75 190.80 C 498.60 186.60 502.06 173.72 495.87 165.95 C 491.28 159.98 484.26 156.71 477.65 153.50 C 469.17 149.26 460.63 144.82 453.45 138.54 C 439.54 126.57 440.59 102.19 454.53 90.64 Z"/>
<path fill="#000000" opacity="1.00" d=" M 725.49 82.66 C 731.70 80.15 739.58 84.17 740.64 90.90 C 742.20 97.19 737.65 104.28 731.10 104.94 C 724.64 106.03 718.10 100.54 717.99 94.02 C 717.59 89.10 720.95 84.36 725.49 82.66 Z"/>
<path fill="#000000" opacity="1.00" d=" M 915.51 82.66 C 921.71 80.16 929.56 84.17 930.64 90.88 C 932.21 97.17 927.67 104.26 921.13 104.93 C 914.66 106.05 908.12 100.56 907.99 94.03 C 907.59 89.11 910.95 84.35 915.51 82.66 Z"/>
<path fill="#000000" opacity="1.00" d=" M 958.81 98.00 C 964.91 98.00 971.02 98.00 977.12 98.00 C 977.12 108.00 977.12 118.00 977.12 128.00 C 981.76 128.00 986.41 128.00 991.06 128.00 C 991.06 133.35 991.06 138.71 991.06 144.06 C 986.41 144.06 981.76 144.06 977.12 144.06 C 977.12 165.39 977.12 186.73 977.12 208.06 C 971.02 208.06 964.91 208.06 958.81 208.06 C 958.81 186.73 958.81 165.39 958.81 144.06 C 954.18 144.06 949.56 144.06 944.94 144.06 C 944.93 138.71 944.94 133.35 944.94 128.00 C 949.56 128.00 954.19 128.00 958.82 128.00 C 958.81 118.00 958.81 108.00 958.81 98.00 Z"/>
<path fill="#000000" opacity="1.00" d=" M 573.19 125.16 C 583.16 124.25 593.50 126.55 601.87 132.15 C 610.59 137.97 617.42 146.84 620.05 157.06 C 623.07 168.62 621.17 181.51 614.45 191.45 C 606.75 202.73 593.72 210.32 580.02 210.95 C 567.53 211.76 554.77 206.97 546.07 197.93 C 538.21 190.10 533.57 179.11 533.67 167.98 C 533.51 156.62 538.27 145.36 546.43 137.47 C 553.55 130.40 563.21 126.04 573.19 125.16 M 571.55 141.80 C 566.85 143.01 562.69 145.89 559.57 149.57 C 550.10 160.40 550.87 178.69 561.51 188.48 C 570.44 197.66 586.89 196.90 595.00 187.01 C 605.03 176.24 604.41 157.40 593.53 147.43 C 587.87 141.80 579.20 139.77 571.55 141.80 Z"/>
<path fill="#000000" opacity="1.00" d=" M 653.36 132.29 C 662.28 126.23 673.44 124.38 684.04 125.13 C 689.98 125.48 695.82 127.12 701.07 129.94 C 701.06 136.63 701.05 143.32 701.07 150.01 C 693.53 142.25 681.69 139.16 671.31 142.16 C 664.92 144.01 659.68 149.02 657.15 155.11 C 654.56 161.32 654.38 168.32 655.59 174.87 C 656.85 181.62 661.00 187.94 667.20 191.10 C 678.33 196.62 693.51 194.31 701.07 183.95 C 701.05 190.98 701.06 198.02 701.07 205.05 C 690.55 211.20 677.63 212.41 665.89 209.62 C 654.05 206.81 643.88 198.06 639.11 186.89 C 635.17 177.58 634.68 167.03 636.59 157.18 C 638.60 147.09 644.78 137.96 653.36 132.29 Z"/>
<path fill="#000000" opacity="1.00" d=" M 785.79 125.93 C 794.58 124.05 804.40 124.71 812.15 129.61 C 816.24 132.13 819.23 136.05 821.28 140.34 C 821.21 136.23 821.25 132.11 821.25 128.00 C 827.35 128.00 833.46 127.99 839.57 128.01 C 839.55 154.69 839.57 181.38 839.56 208.06 C 833.46 208.06 827.35 208.06 821.25 208.06 C 821.24 204.63 821.24 201.20 821.26 197.77 C 816.74 203.98 810.16 208.85 802.52 210.29 C 792.44 212.16 781.19 210.61 773.03 204.04 C 765.11 197.78 760.76 188.01 759.38 178.19 C 757.90 167.39 758.36 155.96 762.81 145.86 C 767.04 136.30 775.40 128.23 785.79 125.93 M 794.43 141.65 C 785.95 143.39 780.16 151.32 778.75 159.53 C 777.22 168.51 777.47 178.52 782.49 186.43 C 789.12 196.80 805.72 197.88 814.06 189.06 C 819.79 183.32 821.85 174.94 821.72 167.05 C 821.68 159.70 819.99 151.78 814.56 146.47 C 809.37 141.29 801.35 140.14 794.43 141.65 Z"/>
<path fill="#000000" opacity="1.00" d=" M 1026.14 127.84 C 1035.30 124.33 1045.50 124.31 1055.01 126.30 C 1064.79 128.41 1073.69 134.70 1078.41 143.60 C 1082.86 151.65 1083.64 161.04 1083.59 170.06 C 1062.35 170.07 1041.11 170.05 1019.87 170.07 C 1020.37 177.03 1022.51 184.37 1027.99 189.06 C 1034.29 194.64 1043.63 194.92 1051.37 192.66 C 1058.58 190.57 1063.53 184.36 1066.88 177.96 C 1072.04 180.90 1077.21 183.83 1082.38 186.78 C 1077.24 196.15 1069.42 204.48 1059.19 208.17 C 1049.29 211.75 1038.21 211.92 1028.10 209.10 C 1016.47 205.83 1006.93 196.45 1003.14 185.01 C 1000.23 176.33 999.85 166.87 1001.46 157.90 C 1003.89 144.57 1013.45 132.71 1026.14 127.84 M 1033.50 141.66 C 1026.58 144.20 1022.68 151.16 1021.03 157.97 C 1035.41 158.03 1049.80 157.99 1064.19 157.99 C 1063.35 152.02 1060.60 145.87 1055.10 142.87 C 1048.56 139.36 1040.42 139.20 1033.50 141.66 Z"/>
<path fill="#000000" opacity="1.00" d=" M 720.43 128.00 C 726.52 128.00 732.60 128.00 738.69 128.00 C 738.69 154.69 738.69 181.37 738.69 208.06 C 732.60 208.06 726.52 208.06 720.44 208.06 C 720.43 181.37 720.44 154.69 720.43 128.00 Z"/>
<path fill="#000000" opacity="1.00" d=" M 910.43 128.00 C 916.52 128.00 922.60 128.00 928.69 128.00 C 928.69 154.69 928.69 181.37 928.69 208.06 C 922.60 208.06 916.52 208.06 910.44 208.06 C 910.43 181.37 910.44 154.69 910.43 128.00 Z"/>
</svg>