<?xml version="1.0" encoding="UTF-8" ?>
<!DOCTYPE svg PUBLIC "-//W3C//DTD SVG 1.1//EN" "http://www.w3.org/Graphics/SVG/1.1/DTD/svg11.dtd">
<svg width="208pt" height="183pt" viewBox="0 0 208 183" version="1.1" xmlns="http://www.w3.org/2000/svg">
<path fill="#ffffff" opacity="1.00" d=" M 50.67 0.00 L 155.94 0.00 C 163.82 13.40 171.80 26.77 179.26 40.41 C 161.84 40.58 144.42 40.60 126.99 40.69 C 120.67 40.82 114.31 40.39 108.02 41.32 C 84.70 41.63 61.37 41.53 38.05 41.69 C 35.11 41.65 32.19 41.96 29.30 42.43 C 26.15 49.55 27.46 58.39 32.99 63.99 C 36.78 68.78 43.08 70.71 49.00 70.65 C 68.35 70.43 87.70 70.52 107.05 70.36 C 109.70 70.40 112.31 69.69 114.97 69.73 C 136.99 69.66 159.01 69.56 181.04 69.48 C 194.95 69.82 206.62 83.18 205.32 96.97 C 204.89 98.26 204.25 99.47 203.61 100.67 C 187.85 128.11 172.07 155.55 156.33 183.00 L 51.06 183.00 C 45.72 174.24 40.74 165.27 35.54 156.43 C 32.96 151.83 29.98 147.44 27.90 142.58 C 41.60 142.59 55.30 142.43 69.00 142.41 C 74.69 142.41 80.39 142.56 86.03 141.76 C 104.03 141.73 122.04 141.57 140.04 141.51 C 152.38 140.11 164.85 140.92 177.26 140.43 C 179.53 137.14 179.61 132.98 179.00 129.17 C 177.47 121.44 171.27 114.97 163.71 112.86 C 160.50 112.33 157.23 112.51 154.00 112.49 C 128.99 112.57 103.99 112.79 78.98 112.77 C 62.36 114.02 45.65 113.30 28.99 113.63 C 23.06 114.00 17.20 111.98 12.19 108.92 C 5.42 103.91 0.66 95.55 1.30 86.99 C 1.55 85.27 2.61 83.82 3.39 82.31 C 19.17 54.89 34.92 27.45 50.67 0.00 Z" />
</svg>
